<svg xmlns="http://www.w3.org/2000/svg" version="1.1" xmlns:xlink="http://www.w3.org/1999/xlink" xmlns:svgjs="http://svgjs.com/svgjs" width="512" height="512"><svg xmlns="http://www.w3.org/2000/svg" xmlns:xlink="http://www.w3.org/1999/xlink" xmlns:svgjs="http://svgjs.com/svgjs" version="1.1" width="512" height="512" x="0" y="0" viewBox="0 0 50 51" style="enable-background:new 0 0 512 512" xml:space="preserve"><g><g fill="#fc6559"><path d="m23.246 6.021-3.807 3.807 3.195 3.194 3.806-3.806a1.806 1.806 0 0 0 0-2.555l-.64-.64a1.806 1.806 0 0 0-2.554 0zM14.983 4.493 11.177 8.3l3.194 3.194 3.806-3.806a1.806 1.806 0 0 0 0-2.555l-.64-.64a1.806 1.806 0 0 0-2.554 0z" fill="#fc6559" data-original="#fc6559"></path><path d="m26.443 9.217-3.806 3.806-3.193-3.193 3.806-3.806a1.812 1.812 0 0 1 2.555 0l.638.638a1.812 1.812 0 0 1 0 2.555z" fill="#fc6559" data-original="#fc6559"></path></g><path fill="#f05543" d="m26.175 9.485-3.538 3.538-3.193-3.193 1.545-1.545z" data-original="#f05543"></path><path fill="#fc6559" d="m18.23 7.646-3.857 3.857-3.206-3.206 3.806-3.806a1.8 1.8 0 0 1 2.555 0l.651.651c.69.69.715 1.789.051 2.504z" data-original="#fc6559"></path><path fill="#f05543" d="m13.019 6.445 5.211 1.201-3.857 3.857-3.206-3.206z" data-original="#f05543"></path><path fill="#fc6559" d="m44.452 27.227-3.807 3.807-3.194-3.195 3.806-3.806a1.806 1.806 0 0 1 2.555 0l.64.64c.705.705.705 1.849 0 2.554zM45.98 35.49l-3.807 3.806-3.194-3.194 3.806-3.806a1.806 1.806 0 0 1 2.555 0l.64.64c.705.705.705 1.848 0 2.554z" data-original="#fc6559"></path><path fill="#f05543" d="m42.192 29.488-1.545 1.545-3.194-3.193 3.538-3.538zM44.031 37.432l-1.864 1.865-3.194-3.193 3.858-3.857z" data-original="#f05543"></path><path fill="#e4e3ff" d="m45.347 12.231-20.59 20.59c-2.235 2.236-4.803 4.088-7.613 5.416L10.21 41.52a.896.896 0 0 1-1.2-1.201l3.282-6.936a26.94 26.94 0 0 1 5.377-7.65l20.59-20.59c3.168-2.862 6.706-3.539 8.826-3.64 1.073-.052 1.967.791 1.916 1.838-.09 2.16-.754 5.71-3.653 8.89z" data-original="#e4e3ff"></path><path fill="#f05543" d="m42.192 29.488-1.545 1.545-3.194-3.193 3.538-3.538zM44.031 37.432l-1.864 1.865-3.194-3.193 3.858-3.857z" data-original="#f05543"></path><path fill="#e4e3ff" d="M39.88 47.485a1.077 1.077 0 0 1-1.788-.23l-9.145-18.623 9.094-9.095 4.968 21.497a4.522 4.522 0 0 1-1.021 4.037z" data-original="#e4e3ff"></path><path fill="#d0d0f7" d="m38.526 21.607-8.736 8.736-.843-1.711 9.094-9.095z" data-original="#d0d0f7"></path><path fill="#fc6559" d="M39.88 47.485a1.077 1.077 0 0 1-1.788-.23l-9.145-18.623 1.494-1.495 9.145 18.623a1.07 1.07 0 0 0 1.329.537z" data-original="#fc6559"></path><path fill="#f05543" d="m31.284 28.849-1.494 1.494-.843-1.711 1.494-1.495z" data-original="#f05543"></path><path fill="#e4e3ff" d="M15.254 49.247a.713.713 0 0 1-1.2-.178l-3.513-7.703 6.067-2.874 1.38 4.216c.485 1.532.166 3.206-.895 4.419z" data-original="#e4e3ff"></path><path fill="#d0d0f7" d="M17.17 40.23 11.282 43l-.741-1.635 6.067-2.874z" data-original="#d0d0f7"></path><path fill="#fc6559" d="M15.254 49.247a.713.713 0 0 1-1.2-.179l-3.513-7.702 1.788-.843 3.219 7.051a.66.66 0 0 0 .805.396z" data-original="#fc6559"></path><path fill="#f05543" d="m13.07 42.158-1.788.843-.741-1.635 1.788-.843z" data-original="#f05543"></path><path fill="#e4e3ff" d="M2.924 12.17a1.077 1.077 0 0 1 .065-1.577l2.414-2.108a4.54 4.54 0 0 1 4.036-1.022l21.497 4.97-9.095 9.094L3.22 12.381a1.112 1.112 0 0 1-.295-.21z" data-original="#e4e3ff"></path><path fill="#e4e3ff" d="m11.512 7.953 5.21 1.2-2.35 2.35-3.205-3.206zM24.668 10.992l-2.031 2.031-3.193-3.193.038-.038z" data-original="#e4e3ff"></path><path fill="#d0d0f7" d="m30.94 12.436-9.095 9.094-1.699-.83 8.737-8.737z" data-original="#d0d0f7"></path><path fill="#f05543" d="m23.34 20.036-1.495 1.494-1.699-.83 1.494-1.495z" data-original="#f05543"></path><path fill="#fc6559" d="m23.34 20.036-1.495 1.494-18.623-9.145a1.077 1.077 0 0 1-.23-1.788L4.18 9.562a1.07 1.07 0 0 0 .536 1.328z" data-original="#fc6559"></path><path fill="#f05543" d="m23.34 20.036-1.495 1.494-1.699-.83 1.494-1.495z" data-original="#f05543"></path><path fill="#e4e3ff" d="m9.046 40.204-7.638-3.73a.718.718 0 0 1-.166-1.188l2.146-1.864a4.628 4.628 0 0 1 4.42-.894l4.215 1.379z" data-original="#e4e3ff"></path><path fill="#d0d0f7" d="m12.022 33.907-2.976 6.297-1.609-.792 2.874-6.067z" data-original="#d0d0f7"></path><path fill="#f05543" d="m9.046 40.204-1.609-.792.856-1.8 1.61.791z" data-original="#f05543"></path><path fill="#fc6559" d="m9.046 40.204-7.638-3.73a.717.717 0 0 1-.166-1.188l1.29-1.11a.674.674 0 0 0 .37.804l7 3.423z" data-original="#fc6559"></path><path fill="#f05543" d="m9.046 40.204-1.609-.792.856-1.8 1.61.791zM13.07 42.158l-1.788.843-.741-1.635 1.788-.843zM31.284 28.849l-1.494 1.494-.843-1.711 1.494-1.495z" data-original="#f05543"></path><path fill="#d0d0f7" d="m39.183 41.185-3.94-14.557a.812.812 0 1 1 1.57-.424l3.94 14.557a.812.812 0 1 1-1.57.424zM9.304 11.306l14.558 3.94a.812.812 0 1 0 .424-1.569L9.728 9.737a.812.812 0 1 0-.424 1.57z" data-original="#d0d0f7"></path><path fill="#7979f7" d="m44.045 11.907-.122.122a.34.34 0 0 1-.58-.219c-.236-2.886-1.778-4.428-4.664-4.663a.34.34 0 0 1-.219-.58l.123-.123c1.354-1.354 3.526-1.799 5.12-.743 2.19 1.452 2.142 4.406.342 6.206z" data-original="#7979f7"></path><path fill="#5e5eef" d="m44.044 11.9-.128.127c-.038.038-.076.051-.127.077 1.457-1.755 1.492-4.366-.639-5.85-1.456-.971-3.41-.677-4.764.447.025-.051.038-.09.076-.128l.128-.128c1.354-1.354 3.513-1.8 5.11-.74 2.157 1.395 2.176 4.363.344 6.194z" data-original="#5e5eef"></path><path fill="#d0d0f7" d="m14.5 37.31-6.023 6.024a.932.932 0 0 1-1.322 0 .932.932 0 0 1 0-1.321l6.025-6.025a.932.932 0 0 1 1.32 0 .932.932 0 0 1 0 1.322z" data-original="#d0d0f7"></path><path fill="#c2c2ef" d="m14.503 37.31-6.027 6.026A.935.935 0 0 1 6.962 42.3a.928.928 0 0 0 1.514.284l6.027-6.026a.847.847 0 0 0 .192-.285.925.925 0 0 1-.192 1.038z" data-original="#c2c2ef"></path><g opacity=".5"><path fill="#ffffff" d="M28.114 25.993a.543.543 0 0 1 0-.768l7.132-7.133a.543.543 0 1 1 .769.769l-7.133 7.132a.543.543 0 0 1-.768 0zM36.683 17.424a.543.543 0 0 1 0-.769l.633-.633a.543.543 0 1 1 .769.769l-.633.633a.543.543 0 0 1-.769 0z" data-original="#ffffff"></path></g><path fill="#ffffff" d="M5.496 33.34a.544.544 0 0 1 .684-.352l2.255.719a.544.544 0 0 1-.33 1.036l-2.256-.72a.544.544 0 0 1-.353-.683z" opacity=".5" data-original="#ffffff"></path><g opacity=".5"><path fill="#ffffff" d="M22.162 11.797a.326.326 0 0 1 .396-.236l.673.172a.325.325 0 1 1-.16.632l-.674-.172a.327.327 0 0 1-.235-.396zM14.366 9.808a.326.326 0 0 1 .397-.236l6.686 1.706a.326.326 0 0 1-.16.632L14.6 10.204a.325.325 0 0 1-.236-.396z" data-original="#ffffff"></path></g></g></svg><style>@media (prefers-color-scheme: light) { :root { filter: none; } }
</style></svg>